<svg width="12" height="13" fill="none" xmlns="http://www.w3.org/2000/svg"><path fill-rule="evenodd" clip-rule="evenodd" d="M9.286 3.536H.714v7.071c0 .209.076.408.21.556.133.147.315.23.505.23H8.57c.19 0 .372-.083.505-.23a.827.827 0 0 0 .21-.556V3.536ZM0 2.75v7.857c0 .417.15.817.418 1.111.268.295.632.46 1.01.46h7.143c.38 0 .743-.165 1.01-.46.268-.294.419-.694.419-1.11V2.75H0Z" fill="#2D3538"/><path d="M5 .786c-.474 0-.928.207-1.263.575a2.068 2.068 0 0 0-.523 1.389H2.5c0-.73.263-1.429.732-1.945A2.39 2.39 0 0 1 5 0c.663 0 1.299.29 1.768.805.469.516.732 1.216.732 1.945h-.714c0-.521-.188-1.02-.523-1.389A1.708 1.708 0 0 0 5 .786Z" fill="#2D3538"/><circle cx="9" cy="3" r="3" fill="#EFD2C2"/><path d="m9.184 3.074-.161-.005v-.193a.957.957 0 0 0 .327-.051.82.82 0 0 0 .278-.21.538.538 0 0 0 .152-.381.507.507 0 0 0-.156-.376.509.509 0 0 0-.374-.154.522.522 0 0 0-.376.154.571.571 0 0 0-.127.198l-.185-.074c.03-.1.086-.19.166-.266a.716.716 0 0 1 .522-.215c.205 0 .38.073.522.218a.703.703 0 0 1 .215.515c0 .205-.054.366-.163.483a.918.918 0 0 1-.308.235c.208.068.381.175.518.322.197.212.295.459.295.742 0 .285-.1.528-.303.73-.2.2-.442.3-.727.3a.992.992 0 0 1-.728-.302 1 1 0 0 1-.288-.567l.196-.07c.02.191.1.357.239.495.16.16.355.24.58.24.23 0 .426-.08.587-.24a.798.798 0 0 0 .242-.586.854.854 0 0 0-.237-.598c-.157-.17-.392-.286-.706-.344Z" fill="#fff"/></svg>