<svg width="48" height="112" fill="none" xmlns="http://www.w3.org/2000/svg"><path fill-rule="evenodd" clip-rule="evenodd" d="M9.214 109.392H.854v1.626H47.15v-29.26h-1.373s0 16.88-5.615 22.383c-4.742 4.751-9.734 5.126-17.845 5.126V55.375s5.615-.375 8.36 2.376c4.244 4.251 4.743 9.753 4.743 17.38h1.497V33.868h-1.497c0 7.627-.375 13.13-4.742 17.38-2.746 2.751-8.361 2.376-8.361 2.376V2.483c8.111 0 11.98.5 16.722 5.126 5.49 5.502 5.615 22.383 5.615 22.383h1.373V.857H.853v1.626h8.361v106.909Z" fill="#000"/></svg>