<svg width="80" height="46" fill="none" xmlns="http://www.w3.org/2000/svg"><path d="M3.722 0C1.667 0 0 1.498 0 3.346v38.47c0 1.848 1.668 3.346 3.722 3.346h72.555c2.056 0 3.723-1.498 3.723-3.346V3.346C80 1.498 78.332 0 76.278 0H3.722Zm22.51 5.436c4.567 0 8.76 1.428 12.053 3.814-2.77 2.228-4.836 5.155-5.855 8.472h1.598c.94-2.737 2.65-5.173 4.902-7.106 2.253 1.933 3.962 4.37 4.902 7.106h1.623c-1.033-3.3-3.102-6.21-5.87-8.423 3.298-2.415 7.509-3.863 12.095-3.863 10.583 0 19.162 7.713 19.162 17.228S62.263 39.892 51.68 39.892c-4.662 0-8.938-1.496-12.26-3.984 2.972-2.325 5.163-5.44 6.165-8.985h-1.563c-.89 2.975-2.68 5.621-5.092 7.69-2.412-2.069-4.2-4.715-5.09-7.69h-1.488c1.008 3.493 3.17 6.565 6.098 8.868-3.316 2.458-7.575 3.935-12.218 3.935C15.65 39.726 7.07 32.05 7.07 22.58S15.65 5.436 26.233 5.436Zm24.01 12.111c-2.302 0-4.542 1.81-4.542 5.207 0 2.253 1.21 3.74 3.59 3.74.673 0 1.745-.247 1.745-.247l.355-1.97s-.978.446-1.65.446c-1.415 0-1.983-.978-1.983-2.03 0-2.132 1.218-3.305 2.573-3.305 1.016 0 1.832.516 1.832.516l.325-1.914s-1.208-.443-2.245-.443Zm19.358.166-2.002.005-.43 2.369s-.753-.92-1.93-.92c-1.83 0-3.356 1.955-3.356 4.203 0 1.45.812 2.874 2.476 2.874 1.196 0 1.86-.74 1.86-.74l-.088.632h1.945l1.525-8.423Zm-57.355.025-1.595 8.443h1.922l1.216-6.366.18 6.366h1.374l2.565-6.366-1.137 6.366h2.043l1.575-8.443h-3.16l-1.968 5.18-.102-5.18h-2.913Zm20.085.549c-.044.039-1.162 5.84-1.162 6.546 0 1.046.652 1.513 1.57 1.506.657-.005 1.166-.154 1.402-.216l.072-.018.248-1.51c-.135 0-.333.051-.508.051-.685 0-.76-.327-.717-.57l.553-3.082h1.042l.252-1.67H34.1l.2-1.038h-1.97Zm23.238.849c-1.342 0-2.37.398-2.37.398l-.286 1.55s.85-.317 2.133-.317c.729 0 1.262.075 1.262.62 0 .332-.065.455-.065.455s-.576-.045-.842-.045c-1.692 0-3.47.666-3.47 2.672 0 1.58 1.167 1.941 1.89 1.941 1.38 0 1.976-.824 2.008-.826l-.066.687h1.723l.77-4.962c0-2.105-1.995-2.173-2.688-2.173Zm-32.313.009c-1.347 0-2.38.398-2.38.398l-.285 1.55s.852-.317 2.14-.317c.731 0 1.267.076 1.267.62 0 .332-.064.455-.064.455s-.578-.045-.846-.045c-1.698 0-3.482.665-3.482 2.67 0 1.579 1.17 1.941 1.895 1.941 1.386 0 1.983-.824 2.015-.827l-.065.688h1.73l.773-4.96c0-2.104-2.003-2.173-2.698-2.173Zm6.11 0c-1.446 0-2.915.525-2.915 2.317 0 2.03 2.448 1.826 2.448 2.68 0 .572-.683.619-1.21.619-.912 0-1.733-.283-1.735-.27l-.263 1.551c.047.013.555.218 2.195.218.44 0 2.957.1 2.957-2.256 0-2.204-2.33-1.767-2.33-2.652 0-.44.379-.58 1.073-.58.276 0 1.337.079 1.337.079l.245-1.567s-.685-.139-1.802-.139Zm9.04 0c-2.01 0-3.498 1.943-3.498 4.137 0 2.533 1.865 3.135 3.453 3.135 1.466 0 2.112-.294 2.112-.294l.35-1.728s-1.115.44-2.122.44c-2.146 0-1.77-1.436-1.77-1.436h4.062s.263-1.16.263-1.634c0-1.18-.656-2.62-2.85-2.62Zm7.277.074c-.905 0-1.577 1.095-1.577 1.095l.18-1.005h-1.88l-1.263 6.935h2.078c.588-2.961.696-5.366 2.1-4.926.246-1.146.484-1.589.752-2.074 0 0-.126-.025-.39-.025Zm16.833 0c-.905 0-1.578 1.095-1.578 1.095l.18-1.005h-1.88l-1.262 6.935h2.075c.589-2.961.699-5.366 2.102-4.926.247-1.146.485-1.589.753-2.074 0 0-.126-.025-.39-.025Zm-24.12 1.49c1.141 0 .932 1.158.932 1.252H37.08c0-.12.213-1.252 1.315-1.252Zm27.157.135c.727 0 1.1.44 1.1 1.479 0 .941-.528 2.2-1.622 2.2-.726 0-1.068-.54-1.068-1.385 0-1.382.704-2.294 1.59-2.294Zm-9.982 2.36c.296 0 .358.026.407.038-.007-.001-.008 0 .02.004.038.31-.207 1.758-1.392 1.758-.611 0-.767-.437-.767-.695 0-.502.29-1.105 1.732-1.105Zm-32.313.006c.337 0 .374.034.43.043.038.309-.208 1.755-1.397 1.755-.613 0-.773-.434-.773-.692 0-.502.293-1.106 1.74-1.106Z" fill="#000"/></svg>