<svg width="47" height="19" fill="none" xmlns="http://www.w3.org/2000/svg"><path d="M8.586 2.878c-.552.61-1.432 1.092-2.31 1.021-.117-.821.321-1.7.826-2.246C7.653 1.032 8.617.586 9.398.549c.093.858-.268 1.7-.81 2.329h-.002ZM9.39 4.06c-1.277-.072-2.373.678-2.978.678-.618 0-1.545-.643-2.554-.621A3.784 3.784 0 0 0 .66 5.938c-1.385 2.215-.36 5.495.97 7.3.651.893 1.43 1.87 2.457 1.843.97-.037 1.361-.594 2.532-.594 1.186 0 1.522.594 2.556.572 1.062-.015 1.735-.892 2.386-1.784.741-1.013 1.047-2.005 1.063-2.054-.016-.022-2.058-.75-2.072-2.947-.017-1.842 1.605-2.719 1.674-2.77-.91-1.273-2.349-1.408-2.838-1.442l.002-.001Zm7.368-2.494v13.4h2.225v-4.581h3.078c2.807 0 4.78-1.806 4.78-4.412 0-2.612-1.934-4.405-4.704-4.405l-5.38-.002Zm2.225 1.757h2.563c1.928 0 3.03.963 3.03 2.655 0 1.693-1.102 2.664-3.044 2.664h-2.549v-5.32Zm11.912 11.742c1.4 0 2.692-.658 3.283-1.708h.047v1.609h2.056V8.295c0-1.925-1.65-3.178-4.2-3.178-2.356 0-4.1 1.267-4.16 3.002h1.995c.17-.828.98-1.366 2.105-1.366 1.362 0 2.12.594 2.12 1.686v.736l-2.769.156c-2.587.148-3.98 1.133-3.98 2.854 0 1.735 1.44 2.882 3.504 2.882l-.001-.001Zm.605-1.587c-1.187 0-1.944-.531-1.944-1.345 0-.843.728-1.339 2.111-1.418l2.472-.141v.757c0 1.255-1.14 2.147-2.648 2.147h.009Zm7.528 5.134c2.164 0 3.183-.779 4.07-3.123L47 5.25h-2.256l-2.616 7.91h-.047l-2.617-7.91H37.14l3.765 9.752-.2.594c-.345 1-.894 1.387-1.874 1.387-.176 0-.513-.02-.65-.034v1.608c.128.035.68.05.84.05l.008.006Z" fill="#000"/></svg>