<svg width="72" height="21" fill="none" xmlns="http://www.w3.org/2000/svg"><path d="M52.34 1.459a16.445 16.445 0 0 0-5.223-.814c-5.76 0-9.827 2.613-9.855 6.364-.036 2.755 2.89 4.308 5.104 5.229 2.27.946 3.03 1.543 3.023 2.389-.014 1.287-1.814 1.87-3.488 1.87-2.3 0-3.556-.288-5.489-1.011l-.716-.302-.817 4.318c1.4.526 3.923.976 6.53 1.015 6.122 0 10.124-2.596 10.171-6.587.05-2.201-1.533-3.864-4.866-5.239C44.687 7.8 43.43 7.203 43.43 6.3c0-.8 1.076-1.657 3.326-1.657 1.497-.032 2.985.22 4.366.743l.54.217.817-4.172-.14.029ZM67.285.995h-4.5c-1.4 0-2.454.347-3.066 1.599l-8.654 17.654h6.123l1.224-2.895 7.473.007c.176.677.716 2.888.716 2.888H72L67.285.995ZM28.979.833h5.835l-3.65 19.263h-5.827L28.979.826v.007ZM14.168 11.45l.604 2.674L20.474.995h6.18l-9.182 19.227h-6.166l-5.04-16.28a1.118 1.118 0 0 0-.536-.645A26.811 26.811 0 0 0 0 1.387L.08.983h9.39c1.274.046 2.3.406 2.642 1.631l2.052 8.847v-.01h.004Zm45.918 1.965 2.325-5.388c-.029.058.479-1.112.774-1.835l.4 1.663 1.35 5.556h-4.853v.004h.004Z" fill="#000"/></svg>