<svg width="32" height="33" fill="none" xmlns="http://www.w3.org/2000/svg"><path d="M21.4 16.154c0-3-2.4-5.4-5.4-5.4-3 0-5.4 2.4-5.4 5.4 0 3 2.4 5.399 5.4 5.399 3 0 5.4-2.4 5.4-5.4Zm2.8 0c0 4.599-3.6 8.198-8.2 8.198s-8.2-3.6-8.2-8.198c0-4.6 3.6-8.2 8.2-8.2s8.2 3.6 8.2 8.2Zm2.2-8.6c0 1.2-.8 2-2 2s-2-.8-2-2 .8-1.999 2-1.999 2 1 2 2ZM16 2.956c-2.4 0-7.4-.2-9.4.6-1.4.6-2.6 1.8-3 3.2-.8 2-.6 6.999-.6 9.399 0 2.4-.2 7.398.6 9.398.4 1.4 1.6 2.6 3 3 2 .8 7.2.6 9.4.6s7.4.2 9.4-.6c1.4-.6 2.4-1.6 3-3 .8-2.2.6-7.199.6-9.398 0-2.2.2-7.4-.6-9.4-.4-1.399-1.6-2.599-3-2.999-2-1-7-.8-9.4-.8Zm16 13.199v6.599c0 2.4-.8 4.799-2.6 6.799-1.8 1.8-4.2 2.6-6.8 2.6H9.4c-2.4 0-4.8-.8-6.8-2.6-1.6-1.8-2.6-4.2-2.6-6.8V9.555c0-2.6 1-4.999 2.6-6.799 2-1.6 4.4-2.6 6.8-2.6h13.2c2.4 0 4.8.8 6.8 2.6 1.6 1.8 2.6 4.2 2.6 6.8v6.599Z" fill="#fff"/></svg>