<svg width="31" height="32" fill="none" xmlns="http://www.w3.org/2000/svg"><path d="M9.775 10.338c1.55-1.55 3.418-2.324 5.606-2.324 2.187 0 4.033.774 5.537 2.324 1.55 1.504 2.324 3.35 2.324 5.537 0 2.188-.775 4.056-2.324 5.605-1.504 1.504-3.35 2.256-5.537 2.256-2.188 0-4.056-.752-5.606-2.256-1.504-1.549-2.255-3.418-2.255-5.605 0-2.188.751-4.033 2.255-5.537Zm1.983 9.16c1.002 1.003 2.21 1.504 3.623 1.504 1.413 0 2.62-.501 3.623-1.504 1.002-1.003 1.504-2.21 1.504-3.623 0-1.413-.502-2.62-1.504-3.623-1.003-1.003-2.21-1.504-3.623-1.504-1.413 0-2.62.501-3.623 1.504-1.003 1.003-1.504 2.21-1.504 3.623 0 1.413.501 2.62 1.504 3.623ZM24.814 6.441c.365.32.547.73.547 1.23 0 .502-.182.935-.547 1.3-.319.364-.729.547-1.23.547s-.934-.183-1.299-.547a1.774 1.774 0 0 1-.547-1.3c0-.5.183-.91.547-1.23a1.774 1.774 0 0 1 1.299-.546c.501 0 .911.182 1.23.546Zm5.811 3.145c.046 1.23.068 3.327.068 6.289 0 2.962-.022 5.059-.068 6.29-.137 2.779-.98 4.944-2.53 6.493-1.503 1.504-3.645 2.302-6.425 2.393-1.23.09-3.327.137-6.29.137-2.961 0-5.058-.046-6.288-.137-2.78-.137-4.922-.957-6.426-2.461a6.596 6.596 0 0 1-1.436-1.914 11.225 11.225 0 0 1-.82-2.12c-.137-.683-.205-1.48-.205-2.392-.091-1.23-.137-3.327-.137-6.289 0-2.962.046-5.081.137-6.357.137-2.735.957-4.854 2.461-6.358C4.17 1.61 6.312.768 9.092.63c1.23-.045 3.327-.068 6.289-.068 2.962 0 5.058.023 6.289.069 2.78.137 4.922.98 6.426 2.53 1.55 1.503 2.392 3.645 2.529 6.425Zm-3.281 15.312c.136-.364.25-.82.341-1.367.092-.592.16-1.276.206-2.05.045-.82.068-1.482.068-1.983v-7.246c0-.501-.023-1.14-.068-1.914a19.31 19.31 0 0 0-.205-2.05c-.092-.593-.206-1.072-.342-1.436-.547-1.413-1.527-2.393-2.94-2.94-.364-.137-.843-.25-1.435-.342-.547-.09-1.23-.16-2.051-.205a33.786 33.786 0 0 0-1.914-.068H11.757c-.5 0-1.161.023-1.982.068-.774.046-1.458.114-2.05.205a7.446 7.446 0 0 0-1.368.342c-1.412.547-2.392 1.527-2.939 2.94-.137.364-.25.843-.342 1.435-.091.547-.16 1.23-.205 2.05a33.784 33.784 0 0 0-.068 1.915v8.203c.045.684.09 1.276.136 1.777.046.456.114.935.206 1.436.09.501.182.911.273 1.23.592 1.413 1.572 2.393 2.94 2.94.364.137.82.25 1.367.342.592.09 1.276.16 2.05.205.82.045 1.459.068 1.915.068h7.314c.501 0 1.14-.023 1.914-.068.82-.046 1.504-.114 2.05-.205.593-.091 1.072-.205 1.436-.342 1.413-.593 2.393-1.572 2.94-2.94Z" fill="#000"/></svg>