<svg width="35" height="36" fill="none" xmlns="http://www.w3.org/2000/svg"><path d="M30.352 3.793c1.503 1.322 2.574 3.418 3.213 6.289.638 2.826.706 6.335.205 10.527a13.25 13.25 0 0 1-.684 2.871c-.273.866-.593 1.618-.957 2.256a8.942 8.942 0 0 1-1.299 1.641 8.331 8.331 0 0 1-1.367 1.23c-.41.274-.866.524-1.367.752-.502.228-.912.41-1.23.547-.32.091-.684.183-1.095.274-.364.09-.57.136-.615.136-.319.137-.866.274-1.64.41-.775.137-2.006.274-3.692.41a23.463 23.463 0 0 1-5.058 0c-.957 1.049-1.641 1.8-2.051 2.257l-.547.547a9.726 9.726 0 0 1-.478.546c-.092.092-.251.228-.48.41-.181.228-.318.342-.41.342-.09 0-.25.046-.478.137-.228.091-.387.068-.478-.068a1.014 1.014 0 0 1-.479-.274 1.014 1.014 0 0 1-.273-.478 6.558 6.558 0 0 1-.137-.479v-.342l-.068-.136.068-3.555h-.068a12.594 12.594 0 0 1-2.666-1.094c-.82-.501-1.504-1.048-2.051-1.64-.501-.593-.98-1.23-1.436-1.915-.41-.729-.729-1.458-.957-2.187-.182-.73-.364-1.481-.547-2.256a20.259 20.259 0 0 1-.273-2.256c0-.729-.023-1.435-.068-2.119 0-.683.022-1.299.068-1.846.091-4.967 1.23-8.544 3.418-10.732 1.367-1.23 3.19-2.142 5.469-2.734C12.122.67 14.082.375 15.723.375h2.392c2.37.046 4.512.319 6.426.82 1.96.456 3.304.912 4.033 1.367.73.41 1.322.82 1.778 1.231Zm.957 16.201c.455-3.555.41-6.562-.137-9.023-.501-2.507-1.39-4.307-2.666-5.4-.32-.32-.82-.661-1.504-1.026s-1.868-.73-3.555-1.094c-1.64-.364-3.463-.57-5.468-.615h-.89c-.364 0-1.07.046-2.118.137a20.72 20.72 0 0 0-2.94.341c-.911.137-1.914.433-3.008.89-1.093.41-1.982.956-2.666 1.64-1.868 1.823-2.848 4.808-2.939 8.955.046.82.046 1.709 0 2.666-.046.911.046 1.914.273 3.008.228 1.048.524 2.05.89 3.008.41.91 1.07 1.777 1.981 2.597.912.775 2.028 1.345 3.35 1.71-.045 3.6-.068 5.559-.068 5.878 0 .319.09.501.273.547.182.091.365.023.547-.205l4.649-5.4c1.412.09 2.848.09 4.306 0 1.459-.137 2.53-.274 3.213-.41.684-.137 1.162-.251 1.436-.343.045 0 .25-.045.615-.136.41-.091.752-.183 1.025-.274.32-.136.73-.319 1.23-.547a4.379 4.379 0 0 0 1.3-.888c.41-.41.82-.866 1.23-1.367.41-.547.752-1.208 1.025-1.983.274-.82.479-1.709.616-2.666Zm-9.502-5.537c0 .319-.16.478-.479.478-.273 0-.41-.136-.41-.41-.091-1.458-.843-2.233-2.256-2.324a.46.46 0 0 1-.41-.205.575.575 0 0 1 .068-.478.46.46 0 0 1 .41-.206c1.96.092 2.985 1.14 3.077 3.145Zm1.367.82c.045-1.504-.387-2.757-1.299-3.76-.912-1.002-2.21-1.572-3.896-1.708-.183 0-.297-.069-.342-.205a.85.85 0 0 1 0-.479.46.46 0 0 1 .41-.205c1.914.137 3.395.797 4.443 1.982 1.094 1.185 1.618 2.644 1.573 4.375a.46.46 0 0 1-.206.41.85.85 0 0 1-.478 0 .46.46 0 0 1-.205-.41Zm3.213.889a.46.46 0 0 1-.205.41.852.852 0 0 1-.479 0 .46.46 0 0 1-.205-.41c0-2.689-.797-4.785-2.393-6.289-1.549-1.55-3.509-2.324-5.878-2.324-.274 0-.41-.137-.41-.41 0-.32.136-.479.41-.479 2.643 0 4.83.866 6.562 2.598 1.732 1.686 2.598 3.987 2.598 6.904Zm-.752 6.7c-.456.774-1.003 1.412-1.64 1.913-.639.456-1.277.57-1.915.342-.775-.228-1.891-.73-3.35-1.504-1.412-.775-2.62-1.55-3.623-2.324a17.937 17.937 0 0 1-2.939-2.94 26.718 26.718 0 0 1-2.05-3.144 35.844 35.844 0 0 1-1.163-2.12 20.453 20.453 0 0 1-.547-1.366l-.068-.342c-.228-.638-.114-1.276.342-1.914.5-.638 1.139-1.185 1.914-1.64.638-.32 1.185-.229 1.64.273.547.683.957 1.185 1.23 1.504.32.455.662 1.002 1.026 1.64.41.775.32 1.39-.273 1.846l-.82.615a.664.664 0 0 0-.274.41 1.29 1.29 0 0 0-.068.41v.137c.045.137.09.32.136.547.091.182.274.57.547 1.162.32.547.661 1.071 1.026 1.572.41.456.957.935 1.64 1.436a7.61 7.61 0 0 0 2.393 1.094c.41 0 .729-.137.957-.41l.683-.82c.456-.593 1.049-.684 1.778-.274 1.276.729 2.324 1.48 3.144 2.256.502.455.593 1.002.274 1.64Z" fill="#000"/></svg>