<svg width="31" height="32" fill="none" xmlns="http://www.w3.org/2000/svg"><path d="M26.045 5.006c3.053 3.053 4.58 6.63 4.58 10.732 0 4.193-1.504 7.77-4.512 10.733-3.008 2.962-6.608 4.443-10.8 4.443-2.598 0-5.014-.615-7.247-1.846L0 31.188l2.188-7.862C.82 21.002.136 18.473.136 15.738c0-4.192 1.48-7.77 4.443-10.732C7.542 2.044 11.12.562 15.312.562c4.193 0 7.77 1.482 10.733 4.444ZM15.312 28.385c3.464 0 6.45-1.23 8.956-3.692 2.506-2.506 3.76-5.491 3.76-8.955.045-3.372-1.231-6.334-3.829-8.886-2.46-2.461-5.423-3.692-8.887-3.692-3.463 0-6.448 1.23-8.955 3.692-2.46 2.46-3.691 5.423-3.691 8.886 0 2.416.66 4.649 1.982 6.7l.274.478-1.299 4.648 4.785-1.23.479.273c1.96 1.185 4.101 1.778 6.425 1.778Zm6.905-9.502c.456.228.706.387.752.478.136.274.045.889-.274 1.846-.136.365-.501.752-1.093 1.162-.547.365-1.026.57-1.436.615-1.185.183-2.712-.136-4.58-.957-2.233-.957-4.375-2.87-6.426-5.742-1.048-1.413-1.572-2.711-1.572-3.896 0-1.14.433-2.21 1.299-3.213.319-.274.66-.41 1.025-.41h.752c.41 0 .684.205.82.615l1.162 2.803c.137.273.16.5.069.683-.182.41-.41.775-.684 1.094l-.478.479c-.046.045-.023.205.068.478.638 1.185 1.322 2.073 2.05 2.666.776.592 1.801 1.208 3.077 1.846.365.182.638.16.82-.069.593-.683 1.003-1.185 1.23-1.504.183-.273.457-.341.821-.205.365.137 1.23.547 2.598 1.23Z" fill="#000"/></svg>