<svg width="12" height="13" viewBox="0 0 12 13" fill="none" xmlns="http://www.w3.org/2000/svg">
<path fill-rule="evenodd" clip-rule="evenodd" d="M9.28571 3.53571H0.714286V10.6071C0.714286 10.8155 0.789541 11.0154 0.923495 11.1627C1.05745 11.3101 1.23913 11.3929 1.42857 11.3929H8.57143C8.76087 11.3929 8.94255 11.3101 9.0765 11.1627C9.21046 11.0154 9.28571 10.8155 9.28571 10.6071V3.53571ZM0 2.75V10.6071C0 11.0239 0.15051 11.4236 0.418419 11.7183C0.686328 12.013 1.04969 12.1786 1.42857 12.1786H8.57143C8.95031 12.1786 9.31367 12.013 9.58158 11.7183C9.84949 11.4236 10 11.0239 10 10.6071V2.75H0Z" fill="#2D3538"/>
<path d="M5 0.785714C4.5264 0.785714 4.0722 0.992665 3.73731 1.36104C3.40242 1.72942 3.21429 2.22904 3.21429 2.75H2.5C2.5 2.02065 2.76339 1.32118 3.23223 0.805456C3.70107 0.289731 4.33696 0 5 0C5.66304 0 6.29893 0.289731 6.76777 0.805456C7.23661 1.32118 7.5 2.02065 7.5 2.75H6.78571C6.78571 2.22904 6.59758 1.72942 6.26269 1.36104C5.9278 0.992665 5.4736 0.785714 5 0.785714V0.785714Z" fill="#2D3538"/>
<circle cx="9" cy="3" r="3" fill="#EFD2C2"/>
<path d="M9.18408 3.07373L9.02295 3.06885V2.87598C9.15641 2.87435 9.26546 2.85726 9.3501 2.82471C9.43636 2.79053 9.52913 2.72054 9.62842 2.61475C9.72933 2.50732 9.77979 2.38037 9.77979 2.23389C9.77979 2.08577 9.7277 1.96045 9.62354 1.85791C9.521 1.75537 9.39648 1.7041 9.25 1.7041C9.10514 1.7041 8.97982 1.75537 8.87402 1.85791C8.81706 1.9165 8.77474 1.98242 8.74707 2.05566L8.56152 1.98242C8.59245 1.88151 8.64779 1.79281 8.72754 1.71631C8.8724 1.57308 9.04655 1.50146 9.25 1.50146C9.45508 1.50146 9.62923 1.57389 9.77246 1.71875C9.91569 1.86198 9.9873 2.03369 9.9873 2.23389C9.9873 2.43896 9.93278 2.6001 9.82373 2.71729C9.71468 2.83447 9.61214 2.9126 9.51611 2.95166C9.72445 3.02002 9.89697 3.12744 10.0337 3.27393C10.2306 3.48551 10.3291 3.73291 10.3291 4.01611C10.3291 4.30094 10.2282 4.54427 10.0264 4.74609C9.82617 4.94629 9.58366 5.04639 9.29883 5.04639C9.01562 5.04639 8.77311 4.94548 8.57129 4.74365C8.41178 4.58252 8.31576 4.39372 8.2832 4.17725L8.47852 4.10645C8.49967 4.2985 8.57943 4.4637 8.71777 4.60205C8.87891 4.76156 9.07259 4.84131 9.29883 4.84131C9.52832 4.84131 9.72363 4.76156 9.88477 4.60205C10.0459 4.44092 10.1265 4.24561 10.1265 4.01611C10.1265 3.78825 10.0475 3.58887 9.88965 3.41797C9.7334 3.24707 9.49821 3.13232 9.18408 3.07373Z" fill="white"/>
</svg>
