<svg width="48" height="112" viewBox="0 0 48 112" fill="none" xmlns="http://www.w3.org/2000/svg">
<path fill-rule="evenodd" clip-rule="evenodd" d="M9.21436 109.392H0.853271V111.018H47.1512V81.7584H45.7785C45.7785 81.7584 45.7785 98.6389 40.1629 104.141C35.4207 108.892 30.4291 109.267 22.3176 109.267V55.3748C22.3176 55.3748 27.9332 54.9997 30.6786 57.7506C34.9216 62.002 35.4207 67.5038 35.4207 75.1313H36.9183V33.8678H35.4207C35.4207 41.4953 35.0464 46.9971 30.6786 51.2485C27.9332 53.9994 22.3176 53.6243 22.3176 53.6243V2.48259C30.4291 2.48259 34.2976 2.98275 39.0397 7.60926C44.5306 13.1111 44.6554 29.9916 44.6554 29.9916H46.0281V0.857056H0.853271V2.48259H9.21436V109.392Z" fill="black"/>
</svg>
